 <svg  version="1.0" xmlns="http://www.w3.org/2000/svg"  width="211.000000pt" height="190.000000pt" viewBox="0 0 211.000000 190.000000"  preserveAspectRatio="xMidYMid meet">  <g transform="translate(0.000000,190.000000) scale(0.100000,-0.100000)" fill="#ff0000" stroke="none"> <path d="M176 1775 c-3 -8 8 -35 24 -59 63 -93 72 -162 44 -347 -16 -111 -13 -174 14 -252 16 -47 59 -102 96 -123 18 -9 17 -12 -17 -33 -45 -28 -93 -122 -102 -201 -4 -32 0 -98 9 -159 28 -184 16 -272 -48 -356 -44 -57 -31 -72 28 -32 67 46 189 57 547 49 132 -3 151 -1 187 17 39 20 52 37 52 69 0 11 -9 7 -31 -16 -47 -48 -86 -54 -261 -41 -212 16 -375 3 -470 -36 -14 -6 -12 2 10 41 24 45 27 58 26 154 0 58 -4 153 -8 211 -11 133 6 197 69 266 l41 46 17 -79 c35 -164 157 -352 271 -419 132 -77 421 -119 562 -81 82 22 154 65 226 137 84 85 151 213 177 342 l17 88 37 -40 c80 -89 95 -159 71 -333 -19 -144 -14 -224 20 -290 l24 -47 -41 15 c-81 29 -234 38 -420 26 -199 -13 -239 -8 -280 38 -33 37 -49 32 -27 -8 29 -51 68 -64 192 -63 62 0 154 4 203 7 165 12 337 -17 407 -68 24 -17 35 -2 18 25 -81 126 -91 182 -65 353 11 73 15 139 11 176 -10 99 -58 181 -131 224 -17 9 -15 12 17 32 47 29 85 89 105 167 15 56 16 75 4 162 -30 230 -26 274 40 378 37 59 32 91 -9 53 -15 -14 -43 -31 -62 -37 -68 -21 -224 -32 -355 -26 -201 11 -267 10 -307 -4 -39 -13 -82 -56 -72 -72 3 -5 -1 -9 -8 -9 -7 0 -19 13 -26 29 -27 60 -91 71 -347 58 -226 -12 -385 9 -444 58 -24 21 -30 22 -35 10z m154 -82 c50 -11 111 -14 260 -12 346 5 334 6 377 -27 l38 -29 -95 -13 c-161 -21 -278 -71 -360 -153 -87 -87 -181 -323 -166 -416 2 -18 1 -33 -4 -33 -13 0 -68 74 -87 117 -19 43 -22 176 -9 333 10 110 -3 194 -37 236 -20 26 -20 27 -2 20 11 -4 49 -14 85 -23z m1454 -21 c-34 -65 -40 -158 -20 -298 17 -119 11 -196 -19 -253 -18 -35 -73 -101 -85 -101 -4 0 -8 22 -8 48 -3 101 -60 232 -142 325 -100 113 -305 217 -429 217 -39 0 -39 11 -1 43 40 34 76 38 275 29 191 -8 341 0 400 21 22 8 43 15 47 16 4 0 -4 -21 -18 -47z m-594 -117 c57 -17 168 -72 207 -103 22 -16 6 -17 -330 -18 -193 0 -388 -4 -432 -8 l-80 -7 30 26 c147 125 402 171 605 110z m293 -180 c145 -149 182 -363 104 -595 -22 -66 -94 -196 -112 -203 -6 -3 -69 2 -140 10 -139 16 -641 23 -710 11 l-40 -7 3 399 c1 228 -1 400 -6 400 -11 0 -27 -715 -17 -759 10 -46 -7 -38 -42 22 -85 139 -128 295 -119 424 6 86 39 195 70 229 9 10 30 37 45 59 l28 40 450 4 450 3 36 -37z m-149 -808 l129 -12 -40 -36 c-98 -88 -188 -119 -347 -119 -204 0 -376 52 -461 139 l-39 41 314 -1 c173 0 373 -6 444 -12z"/> <path d="M1444 1379 c-13 -22 -17 -428 -5 -604 19 -280 34 -245 24 55 -4 140 -6 324 -5 408 2 83 1 152 -1 152 -3 0 -9 -5 -13 -11z"/> <path d="M827 1191 c-32 -5 -60 -11 -63 -14 -15 -14 119 -281 192 -380 61 -83 57 -85 168 108 127 222 155 275 146 280 -15 9 -383 14 -443 6z m423 -25 c0 -6 -106 -184 -168 -283 -29 -46 -52 -87 -52 -92 0 -51 -106 93 -191 259 -24 47 -50 93 -58 103 -13 16 -1 17 227 17 133 0 242 -2 242 -4z"/> </g> </svg> 